<svg width="360" height="224" viewBox="0 0 360 224" fill="none" xmlns="http://www.w3.org/2000/svg">
<path d="M243.418 113.003C257.953 113.003 270.129 101.479 270.403 86.9145C270.686 72.0109 258.669 59.7989 243.861 59.7989C243.433 59.7989 242.881 59.8388 242.304 59.8837H242.269C234.485 60.4718 227.317 55.607 224.979 48.1352C220.597 32.9873 206.55 22.4053 190.812 22.4053C179.436 22.4053 169.001 27.7038 162.186 36.96C158.331 42.1887 151.756 44.6361 145.424 43.1956C142.733 42.5875 140.086 42.2784 137.574 42.2784C117.937 42.2784 101.99 58.4332 102.288 78.1867C102.587 97.5863 118.742 112.998 138.107 112.998H243.418V113.003Z" fill="white"/>
<mask id="mask0_148_585" style="mask-type:luminance" maskUnits="userSpaceOnUse" x="79" y="0" width="214" height="136">
<path d="M79.8647 0H292.732V135.847H79.8647V0Z" fill="white"/>
</mask>
<g mask="url(#mask0_148_585)">
<path d="M137.574 135.463H243.861C270.861 135.463 292.821 113.457 292.821 86.4011C292.821 59.7291 271.462 37.9569 244.985 37.3538C236.49 15.113 214.857 -0.0498352 190.817 -0.0498352C173.821 -0.0498352 157.56 7.59139 146.583 20.566C143.548 20.0725 140.539 19.8283 137.579 19.8283C105.765 19.8283 79.8848 45.7676 79.8848 77.6534C79.8848 109.524 105.765 135.463 137.574 135.463ZM243.861 49.491C264.359 49.491 281.003 66.3535 280.689 86.9694C280.386 107.221 263.514 123.306 243.299 123.306H138.156C113.067 123.306 92.2504 103.234 92.0067 78.092C91.7629 52.706 112.301 31.9705 137.574 31.9705C140.857 31.9705 144.265 32.3693 147.702 33.1469C150.05 33.6802 152.487 32.768 153.914 30.8291C162.694 18.9261 176.139 12.0924 190.812 12.0924C211.097 12.0924 229.202 25.7349 234.853 45.2642C235.644 48.0156 238.255 49.8299 241.105 49.6306C242.279 49.5558 243.06 49.491 243.861 49.491Z" fill="white"/>
</g>
<mask id="mask1_148_585" style="mask-type:luminance" maskUnits="userSpaceOnUse" x="64" y="49" width="118" height="118">
<path d="M64.6541 49.5807H181.774V166.975H64.6541V49.5807Z" fill="white"/>
</mask>
<g mask="url(#mask1_148_585)">
<path d="M78.2533 50.1589C71.0856 50.1589 65.3157 56.4743 65.3157 64.3149V152.765C65.3157 160.605 71.0856 166.916 78.2533 166.916H168.822C175.985 166.916 181.76 160.605 181.76 152.765V64.3149C181.76 56.4743 175.985 50.1589 168.822 50.1589H78.2533Z" fill="white"/>
</g>
<mask id="mask2_148_585" style="mask-type:luminance" maskUnits="userSpaceOnUse" x="62" y="49" width="118" height="118">
<path d="M62.3955 49.5807H179.257V166.975H62.3955V49.5807Z" fill="white"/>
</mask>
<g mask="url(#mask2_148_585)">
<path d="M75.3332 50.1589C68.1655 50.1589 62.3955 56.4743 62.3955 64.3149V152.765C62.3955 160.605 68.1655 166.916 75.3332 166.916H165.897C173.064 166.916 178.834 160.605 178.834 152.765V64.3149C178.834 56.4743 173.064 50.1589 165.897 50.1589H75.3332Z" fill="white"/>
</g>
<path d="M69.3745 85.0154V148.403C69.3745 155.471 74.4531 161.163 80.7602 161.163H160.47C166.777 161.163 171.856 155.471 171.856 148.403V85.0154H69.3745Z" fill="white"/>
<path d="M74.5225 59.3204C74.5274 55.6269 77.7556 52.6262 81.7498 52.6013C85.744 52.5764 89.017 55.5322 89.0767 59.2257C89.1364 62.9192 85.9679 65.9647 81.9687 66.0545C77.9745 66.1392 74.6518 63.2332 74.5274 59.5397" fill="white"/>
<mask id="mask3_148_585" style="mask-type:luminance" maskUnits="userSpaceOnUse" x="76" y="41" width="12" height="24">
<path d="M76.1143 41.8348H87.5746V64.8931H76.1143V41.8348Z" fill="white"/>
</mask>
<g mask="url(#mask3_148_585)">
<path d="M81.7995 41.8348C84.7144 41.8348 87.0572 44.1675 87.0572 47.0685V59.0263C87.0572 61.9273 84.7144 64.26 81.7995 64.26C78.8897 64.26 76.5469 61.9273 76.5469 59.0263V47.0685C76.5469 44.1675 78.8897 41.8348 81.7995 41.8348Z" fill="white"/>
</g>
<path d="M100.398 59.3204C100.403 55.6269 103.631 52.6262 107.625 52.6013C111.624 52.5764 114.892 55.5322 114.952 59.2257C115.017 62.9192 111.843 65.9647 107.849 66.0545C103.85 66.1392 100.527 63.2332 100.403 59.5397" fill="white"/>
<mask id="mask4_148_585" style="mask-type:luminance" maskUnits="userSpaceOnUse" x="101" y="41" width="13" height="24">
<path d="M101.582 41.8348H113.042V64.8931H101.582V41.8348Z" fill="white"/>
</mask>
<g mask="url(#mask4_148_585)">
<path d="M107.675 41.8348C110.59 41.8348 112.933 44.1675 112.933 47.0685V59.0263C112.933 61.9273 110.59 64.26 107.675 64.26C104.765 64.26 102.422 61.9273 102.422 59.0263V47.0685C102.422 44.1675 104.765 41.8348 107.675 41.8348Z" fill="white"/>
</g>
<path d="M126.278 59.3204C126.283 55.6269 129.506 52.6262 133.5 52.6013C137.5 52.5764 140.768 55.5322 140.832 59.2257C140.892 62.9192 137.719 65.9647 133.724 66.0545C129.73 66.1392 126.407 63.2332 126.278 59.5397" fill="white"/>
<mask id="mask5_148_585" style="mask-type:luminance" maskUnits="userSpaceOnUse" x="127" y="41" width="13" height="24">
<path d="M127.049 41.8348H139.783V64.8931H127.049V41.8348Z" fill="white"/>
</mask>
<g mask="url(#mask5_148_585)">
<path d="M133.555 41.8348C136.465 41.8348 138.808 44.1675 138.808 47.0685V59.0263C138.808 61.9273 136.465 64.26 133.555 64.26C130.641 64.26 128.298 61.9273 128.298 59.0263V47.0685C128.298 44.1675 130.641 41.8348 133.555 41.8348Z" fill="white"/>
</g>
<path d="M152.153 59.3204C152.158 55.6269 155.382 52.6262 159.381 52.6013C163.375 52.5764 166.648 55.5322 166.708 59.2257C166.767 62.9192 163.594 65.9647 159.6 66.0545C155.605 66.1392 152.283 63.2332 152.153 59.5397" fill="white"/>
<mask id="mask6_148_585" style="mask-type:luminance" maskUnits="userSpaceOnUse" x="153" y="41" width="13" height="24">
<path d="M153.79 41.8348H165.25V64.8931H153.79V41.8348Z" fill="white"/>
</mask>
<g mask="url(#mask6_148_585)">
<path d="M159.431 41.8348C162.341 41.8348 164.683 44.1675 164.683 47.0685V59.0263C164.683 61.9273 162.341 64.26 159.431 64.26C156.516 64.26 154.173 61.9273 154.173 59.0263V47.0685C154.173 44.1675 156.516 41.8348 159.431 41.8348Z" fill="white"/>
</g>
<mask id="mask7_148_585" style="mask-type:luminance" maskUnits="userSpaceOnUse" x="73" y="57" width="98" height="98">
<path d="M73.5674 57.2369H170.344V154.006H73.5674V57.2369Z" fill="white"/>
</mask>
<g mask="url(#mask7_148_585)">
<path d="M84.7792 57.526C78.855 57.526 74.0898 62.7398 74.0898 69.2196V142.312C74.0898 148.787 78.855 154.006 84.7792 154.006H159.615C165.539 154.006 170.309 148.787 170.309 142.312V69.2196C170.309 62.7398 165.539 57.526 159.615 57.526H84.7792Z" fill="url(#paint0_linear_148_585)"/>
</g>
<mask id="mask8_148_585" style="mask-type:luminance" maskUnits="userSpaceOnUse" x="71" y="57" width="99" height="98">
<path d="M71.6724 57.2369H169.07V154.006H71.6724V57.2369Z" fill="white"/>
</mask>
<g mask="url(#mask8_148_585)">
<path d="M82.3667 57.526C76.4425 57.526 71.6724 62.7398 71.6724 69.2196V142.312C71.6724 148.787 76.4425 154.006 82.3667 154.006H157.202C163.126 154.006 167.896 148.787 167.896 142.312V69.2196C167.896 62.7398 163.126 57.526 157.202 57.526H82.3667Z" fill="url(#paint1_linear_148_585)"/>
</g>
<path d="M77.4424 86.3264V138.708C77.4424 144.545 81.6405 149.251 86.8534 149.251H152.716C157.928 149.251 162.127 144.545 162.127 138.708V86.3264H77.4424Z" fill="white"/>
<path d="M81.7002 65.0924C81.7002 62.0419 84.3663 59.5646 87.6691 59.5397C90.9719 59.5198 93.6729 61.9622 93.7226 65.0177C93.7724 68.0682 91.151 70.5853 87.8532 70.6551C84.5504 70.7299 81.8047 68.3274 81.7002 65.2768" fill="url(#paint2_linear_148_585)"/>
<mask id="mask9_148_585" style="mask-type:luminance" maskUnits="userSpaceOnUse" x="82" y="50" width="11" height="20">
<path d="M82.481 50.6474H92.6679V69.9972H82.481V50.6474Z" fill="white"/>
</mask>
<g mask="url(#mask9_148_585)">
<path d="M87.7138 50.6474C90.1163 50.6474 92.0562 52.5764 92.0562 54.969V64.8532C92.0562 67.2508 90.1163 69.1748 87.7138 69.1748C85.3064 69.1748 83.3665 67.2508 83.3665 64.8532V54.969C83.3665 52.5764 85.3064 50.6474 87.7138 50.6474Z" fill="white"/>
</g>
<path d="M103.079 65.0924C103.084 62.0419 105.75 59.5646 109.053 59.5397C112.356 59.5198 115.057 61.9622 115.106 65.0177C115.156 68.0682 112.535 70.5853 109.232 70.6551C105.934 70.7299 103.188 68.3274 103.084 65.2768" fill="url(#paint3_linear_148_585)"/>
<mask id="mask10_148_585" style="mask-type:luminance" maskUnits="userSpaceOnUse" x="104" y="50" width="11" height="20">
<path d="M104.128 50.6474H114.315V69.9972H104.128V50.6474Z" fill="white"/>
</mask>
<g mask="url(#mask10_148_585)">
<path d="M109.093 50.6474C111.5 50.6474 113.435 52.5764 113.435 54.969V64.8532C113.435 67.2508 111.5 69.1748 109.093 69.1748C106.685 69.1748 104.75 67.2508 104.75 64.8532V54.969C104.75 52.5764 106.685 50.6474 109.093 50.6474Z" fill="white"/>
</g>
<path d="M124.462 65.0924C124.467 62.0419 127.133 59.5646 130.431 59.5397C133.734 59.5198 136.44 61.9622 136.49 65.0177C136.54 68.0682 133.918 70.5853 130.615 70.6551C127.313 70.7299 124.567 68.3274 124.462 65.2768" fill="url(#paint4_linear_148_585)"/>
<mask id="mask11_148_585" style="mask-type:luminance" maskUnits="userSpaceOnUse" x="125" y="50" width="11" height="20">
<path d="M125.776 50.6474H135.963V69.9972H125.776V50.6474Z" fill="white"/>
</mask>
<g mask="url(#mask11_148_585)">
<path d="M130.476 50.6474C132.884 50.6474 134.819 52.5764 134.819 54.969V64.8532C134.819 67.2508 132.884 69.1748 130.476 69.1748C128.069 69.1748 126.134 67.2508 126.134 64.8532V54.969C126.134 52.5764 128.069 50.6474 130.476 50.6474Z" fill="white"/>
</g>
<path d="M145.846 65.0924C145.846 62.0419 148.512 59.5646 151.815 59.5397C155.118 59.5198 157.819 61.9622 157.869 65.0177C157.923 68.0682 155.302 70.5853 151.999 70.6551C148.696 70.7299 145.951 68.3274 145.846 65.2768" fill="url(#paint5_linear_148_585)"/>
<mask id="mask12_148_585" style="mask-type:luminance" maskUnits="userSpaceOnUse" x="147" y="50" width="10" height="20">
<path d="M147.423 50.6474H156.337V69.9972H147.423V50.6474Z" fill="white"/>
</mask>
<g mask="url(#mask12_148_585)">
<path d="M151.86 50.6474C154.263 50.6474 156.202 52.5764 156.202 54.969V64.8532C156.202 67.2508 154.263 69.1748 151.86 69.1748C149.453 69.1748 147.513 67.2508 147.513 64.8532V54.969C147.513 52.5764 149.453 50.6474 151.86 50.6474Z" fill="white"/>
</g>
<path d="M49.5918 135.014L77.1036 203.306H51.3378L45.6076 187.779L50.2285 186.065V191.004H26.8701V186.065L31.4911 187.779L25.7659 203.306H0L28.7503 131.923H48.3483L49.5918 135.014ZM40.4494 138.712L45.0206 136.863V141.802H32.078V136.863L36.6492 138.712L11.8732 200.216L7.30199 198.366V193.427H22.3288V198.366L17.7078 196.652L23.438 181.125H53.6607L59.3908 196.652L54.7699 198.366V193.427H69.7967V198.366L65.2255 200.216L40.4494 138.712ZM40.8673 175.533L34.0229 157.638L38.6239 155.874V160.813H38.4747V155.874L43.0758 157.638L36.2314 175.533L31.6303 173.763V168.823H45.4683V173.763L40.8673 175.533ZM52.636 178.703H24.4627L35.0873 150.934H42.0113L50.0694 171.999L52.636 178.703Z" fill="url(#paint6_linear_148_585)"/>
<path d="M66.8049 203.326L81.6377 196.044L83.9755 199.907C84.453 200.704 85.1146 201.297 85.9452 201.696C86.9997 202.195 88.3825 202.449 90.0986 202.449C91.2874 202.449 92.4265 202.04 93.5108 201.233C94.1525 200.754 94.4708 199.822 94.4708 198.441V195.61H99.4002L103.056 198.92C99.7484 202.588 94.3614 204.423 86.9003 204.423C83.4731 204.423 80.3145 203.805 77.4246 202.563C74.5048 201.307 71.9182 199.443 69.655 196.971C65.2181 192.126 62.9997 186.229 62.9997 179.281C62.9997 172.337 65.2132 166.436 69.6401 161.566C71.9033 159.079 74.4948 157.205 77.4146 155.938C80.3046 154.687 83.4681 154.064 86.9003 154.064C93.098 154.064 98.3009 156.018 102.519 159.921L99.1764 163.55V158.61H99.4002V163.55H94.4708V155.181H117.496V199.408C117.496 203.196 116.849 206.596 115.551 209.616C114.208 212.752 112.194 215.423 109.518 217.622C104.489 221.744 98.0174 223.807 90.0986 223.807C83.8362 223.807 78.5836 222.696 74.3456 220.463C69.7893 218.07 66.4865 214.486 64.4422 209.711L62.5918 205.39L66.8049 203.326ZM71.1373 212.198L68.9686 207.762L73.5 205.808C74.6242 208.44 76.4347 210.409 78.9218 211.715C81.7272 213.19 85.4528 213.928 90.0986 213.928C95.6696 213.928 100.062 212.612 103.27 209.98C104.708 208.799 105.782 207.378 106.493 205.714C107.259 203.939 107.637 201.841 107.637 199.408V160.12H112.567V165.06H99.4002V160.12H104.33V168.489H97.2464L95.8288 167.179C93.5009 165.02 90.5264 163.944 86.9003 163.944C84.8261 163.944 82.9657 164.297 81.3193 165.01C79.7027 165.713 78.2354 166.78 76.9272 168.22C74.2163 171.206 72.8584 174.89 72.8584 179.281C72.8584 183.667 74.2113 187.336 76.9172 190.292C78.2254 191.722 79.6928 192.784 81.3094 193.482C82.9608 194.189 84.8211 194.543 86.9003 194.543C89.4022 194.543 91.4615 194.294 93.0681 193.796C94.2918 193.417 95.1821 192.918 95.7442 192.295L104.33 182.775V198.441C104.33 200.644 103.947 202.623 103.181 204.378C102.345 206.302 101.086 207.892 99.4101 209.148C96.5749 211.266 93.4711 212.328 90.0986 212.328C86.9052 212.328 84.1098 211.76 81.7172 210.618C79.1058 209.377 77.0466 207.513 75.5444 205.026L79.7574 202.469L81.9262 206.905L71.1373 212.198ZM87.9398 176.315C87.2087 177.038 86.8455 178.025 86.8455 179.281C86.8455 180.567 87.1888 181.559 87.8802 182.262C88.5517 182.944 89.5415 183.288 90.8447 183.288C92.0485 183.288 92.9985 182.934 93.6949 182.227C94.4112 181.499 94.7693 180.517 94.7693 179.281C94.7693 178.025 94.4012 177.038 93.67 176.315C92.9189 175.572 91.9738 175.199 90.8447 175.199C89.6609 175.199 88.6959 175.572 87.9398 176.315ZM81.0209 169.277C83.692 166.64 86.9649 165.319 90.8447 165.319C94.6698 165.319 97.9179 166.64 100.589 169.277C103.28 171.934 104.628 175.268 104.628 179.281C104.628 183.214 103.32 186.508 100.713 189.16C98.087 191.832 94.7991 193.168 90.8447 193.168C86.7908 193.168 83.4631 191.842 80.8617 189.195C78.2752 186.568 76.9869 183.263 76.9869 179.281C76.9869 175.268 78.3299 171.934 81.0209 169.277Z" fill="url(#paint7_linear_148_585)"/>
<path d="M158.613 186.01H130.937V181.07H135.866C135.866 182.097 136.07 182.765 136.478 183.069C137.343 183.712 138.249 184.031 139.194 184.031C140.606 184.031 141.606 183.897 142.193 183.627C142.855 183.323 143.755 182.561 144.904 181.339L147.421 178.663L164.974 187.455L162.249 192.026C159.777 196.178 156.464 199.304 152.31 201.397C148.316 203.416 143.621 204.423 138.229 204.423C131.156 204.423 125.082 201.99 120.014 197.125C114.885 192.201 112.319 186.254 112.319 179.281C112.319 172.313 114.88 166.356 120.004 161.411C125.072 156.512 131.151 154.064 138.229 154.064C145.561 154.064 151.599 156.253 156.334 160.629C161.189 165.11 163.617 171.326 163.617 179.281C163.617 180.447 163.567 181.315 163.472 181.883L162.786 186.01H158.613ZM158.613 176.131V181.07L153.753 180.258C153.743 180.318 153.733 180.358 153.733 180.382C153.738 180.338 153.738 180.273 153.743 180.193C153.753 179.964 153.758 179.66 153.758 179.281C153.758 174.212 152.39 170.418 149.654 167.891C146.804 165.259 142.994 163.944 138.229 163.944C133.802 163.944 130.007 165.469 126.843 168.524C123.734 171.53 122.177 175.114 122.177 179.281C122.177 183.443 123.729 187.012 126.833 189.993C129.997 193.028 133.797 194.543 138.229 194.543C142.059 194.543 145.277 193.89 147.878 192.574C150.321 191.343 152.291 189.469 153.783 186.962L158.016 189.494L155.812 193.91L146.292 189.14L148.495 184.724L152.082 188.108C150.057 190.267 148.137 191.762 146.312 192.604C144.421 193.477 142.049 193.91 139.194 193.91C136.075 193.91 133.21 192.943 130.603 190.999C129.032 189.833 127.858 188.348 127.072 186.553C126.361 184.928 126.007 183.099 126.007 181.07V176.131H158.613ZM131.31 168.823H145.814V173.763L140.94 174.496C140.83 173.738 140.611 173.225 140.298 172.956C139.95 172.661 139.383 172.517 138.602 172.517C137.662 172.517 137.015 172.676 136.657 172.99C136.398 173.22 136.254 173.569 136.229 174.032L131.31 173.763V168.823ZM131.31 178.703H126.107L126.385 173.499C126.559 170.284 127.808 167.647 130.126 165.593C132.349 163.62 135.175 162.638 138.602 162.638C141.785 162.638 144.466 163.56 146.65 165.404C148.863 167.273 150.211 169.815 150.689 173.03L151.539 178.703H131.31Z" fill="url(#paint8_linear_148_585)"/>
<path d="M158.437 198.366V155.181H181.467V164.148H176.538V159.208H176.687V164.148L173.2 160.654C177.582 156.262 182.392 154.064 187.62 154.064C189.938 154.064 192.231 154.368 194.509 154.976C196.827 155.595 199.041 156.552 201.16 157.843C203.607 159.333 205.577 161.416 207.064 164.088C208.546 166.75 209.292 169.775 209.292 173.17V203.306H186.262V176.749C186.262 175.971 186.023 175.293 185.541 174.725C185.387 174.546 185.233 174.421 185.083 174.351C184.904 174.271 184.66 174.232 184.347 174.232C183.681 174.232 183.014 174.546 182.357 175.179C181.761 175.742 181.467 176.265 181.467 176.749V203.306H158.437V198.366ZM168.296 198.366H163.366V193.427H176.538V198.366H171.608V176.749C171.608 173.449 172.922 170.543 175.553 168.026C178.115 165.579 181.049 164.352 184.347 164.352C186.073 164.352 187.67 164.686 189.137 165.349C190.634 166.027 191.943 167.019 193.052 168.33C195.096 170.742 196.121 173.549 196.121 176.749V198.366H191.191V193.427H204.363V198.366H199.434V173.17C199.434 171.49 199.105 170.07 198.459 168.903C197.812 167.747 197.006 166.869 196.031 166.281C194.728 165.484 193.37 164.896 191.967 164.522C190.525 164.133 189.078 163.944 187.62 163.944C185.113 163.944 182.631 165.175 180.169 167.642L178.726 169.088H171.608V160.12H176.538V165.06H163.366V160.12H168.296V198.366Z" fill="url(#paint9_linear_148_585)"/>
<path d="M210.024 196.971C205.587 192.126 203.369 186.229 203.369 179.281C203.369 172.337 205.582 166.436 210.009 161.566C212.272 159.079 214.864 157.205 217.784 155.938C220.674 154.687 223.837 154.064 227.269 154.064C233.661 154.064 238.968 156.118 243.201 160.23L239.769 163.774H234.84V129.311H257.865V203.306H234.989V194.045H239.918V198.98H239.769V194.045L243.425 197.355C241.311 199.697 238.889 201.462 236.153 202.653C233.442 203.834 230.483 204.423 227.269 204.423C223.842 204.423 220.684 203.805 217.794 202.563C214.874 201.307 212.287 199.443 210.024 196.971ZM217.286 190.292C218.594 191.722 220.062 192.784 221.678 193.482C223.33 194.189 225.19 194.543 227.269 194.543C229.115 194.543 230.766 194.229 232.223 193.596C233.656 192.968 234.949 192.016 236.113 190.73L237.581 189.105H244.848V198.366H239.918V193.427H252.936V198.366H248.006V134.251H252.936V139.191H239.769V134.251H244.698V175.443L236.337 167.318C234.019 165.07 230.995 163.944 227.269 163.944C225.195 163.944 223.335 164.297 221.688 165.01C220.072 165.713 218.604 166.78 217.296 168.22C214.585 171.206 213.227 174.89 213.227 179.281C213.227 183.667 214.58 187.336 217.286 190.292ZM228.309 176.315C227.578 177.038 227.215 178.025 227.215 179.281C227.215 180.567 227.558 181.559 228.249 182.262C228.921 182.944 229.91 183.288 231.214 183.288C232.417 183.288 233.367 182.934 234.064 182.227C234.78 181.499 235.138 180.517 235.138 179.281C235.138 178.025 234.77 177.038 234.039 176.315C233.288 175.572 232.343 175.199 231.214 175.199C230.03 175.199 229.065 175.572 228.309 176.315ZM221.39 169.277C224.061 166.64 227.334 165.319 231.214 165.319C235.039 165.319 238.287 166.64 240.958 169.277C243.649 171.934 244.997 175.268 244.997 179.281C244.997 183.214 243.689 186.508 241.082 189.16C238.456 191.832 235.168 193.168 231.214 193.168C227.16 193.168 223.832 191.842 221.231 189.195C218.644 186.568 217.356 183.263 217.356 179.281C217.356 175.268 218.699 171.934 221.39 169.277Z" fill="url(#paint10_linear_148_585)"/>
<path d="M258.149 135.308C260.651 132.8 263.646 131.549 267.137 131.549C270.634 131.549 273.629 132.8 276.131 135.308C278.633 137.81 279.881 140.816 279.881 144.315C279.881 147.819 278.633 150.819 276.131 153.327C273.629 155.829 270.634 157.085 267.137 157.085C263.646 157.085 260.651 155.829 258.149 153.327C255.647 150.819 254.399 147.819 254.399 144.315C254.399 140.816 255.647 137.81 258.149 135.308ZM265.118 142.291C264.546 142.869 264.257 143.542 264.257 144.315C264.257 145.087 264.546 145.765 265.118 146.338C265.695 146.917 266.366 147.206 267.137 147.206C267.913 147.206 268.585 146.917 269.162 146.338C269.734 145.765 270.022 145.087 270.022 144.315C270.022 143.542 269.734 142.869 269.162 142.291C268.585 141.718 267.913 141.429 267.137 141.429C266.366 141.429 265.695 141.718 265.118 142.291ZM265.297 160.12V198.366H260.368V193.427H273.539V198.366H268.61V160.12H273.539V165.06H260.368V160.12H265.297ZM255.438 155.181H278.468V203.306H255.438V155.181Z" fill="url(#paint11_linear_148_585)"/>
<path d="M278.649 160.12V151.996C278.708 145.147 280.39 139.574 283.687 135.268C285.488 132.92 287.662 131.146 290.208 129.949C292.696 128.778 295.466 128.195 298.53 128.195C301.022 128.195 303.415 128.554 305.703 129.281C308.051 130.019 309.846 130.857 311.085 131.794L308.13 135.741L310.806 131.594L315.765 134.809L306.852 152.813L302.296 150.147C301.873 149.902 301.39 149.778 300.838 149.778C300.764 149.778 300.714 149.778 300.699 149.783C300.798 149.763 300.913 149.718 301.037 149.653C301.465 149.434 301.783 149.11 301.992 148.686C302.002 148.666 302.007 148.651 302.012 148.651C301.997 148.686 301.982 148.731 301.967 148.786C301.918 148.975 301.873 149.214 301.833 149.504C301.729 150.251 301.674 151.208 301.674 152.37V160.12H296.744V155.181H310.453V175.124H296.744V170.184H301.674V203.306H278.649V170.184H283.578V175.124H273.142V155.181H283.578V160.12H278.649ZM288.507 165.06H278.072V160.12H283.001V170.184H278.072V165.245H288.507V198.366H283.578V193.427H296.744V198.366H291.82V165.245H305.524V170.184H300.594V160.12H305.524V165.06H291.82V152.37C291.82 148.821 292.258 146.149 293.138 144.345C293.889 142.799 295.028 141.638 296.55 140.86C297.799 140.217 299.227 139.898 300.838 139.898C303.166 139.898 305.31 140.472 307.265 141.613L304.783 145.88L300.366 143.687L304.977 134.366L309.394 136.564L306.718 140.711L305.31 139.799L305.171 139.694C304.827 139.435 304.017 139.106 302.743 138.702C301.415 138.283 300.012 138.074 298.53 138.074C296.933 138.074 295.556 138.343 294.397 138.892C293.297 139.41 292.332 140.207 291.507 141.284C289.547 143.841 288.547 147.41 288.507 151.996V165.06Z" fill="url(#paint12_linear_148_585)"/>
<path d="M336.696 155.181H360L324.878 222.691H298.59L315.507 190.122L319.879 192.4L315.581 194.818L293.382 155.181H319.909L331.946 177.367L327.619 179.729L323.147 177.651L333.548 155.181H336.696ZM336.696 165.06V160.12L341.168 162.199L327.967 190.71L312.647 162.483L316.979 160.12V165.06H301.803V160.12L306.101 157.703L325.485 192.315L311.085 220.029L306.712 217.751V212.812H321.888V217.751L317.521 215.468L347.5 157.838L351.872 160.12V165.06H336.696Z" fill="url(#paint13_linear_148_585)"/>
<path d="M45.0207 136.858L69.7918 198.366H54.77L50.2336 186.065H26.8752L22.3388 198.366H7.29712L32.0682 136.858H45.0207ZM45.4585 173.763L38.6141 155.879H38.4748L31.6304 173.763H45.4585Z" fill="white"/>
<path d="M68.9638 207.757L79.7477 202.474C81.7373 205.744 85.1844 207.378 90.0938 207.378C92.372 207.378 94.4959 206.646 96.4607 205.185C98.4205 203.72 99.4053 201.477 99.4053 198.446V195.615C97.0675 198.197 92.8992 199.483 86.8905 199.483C81.3842 199.483 76.8478 197.539 73.2813 193.641C69.7099 189.733 67.9292 184.948 67.9292 179.286C67.9292 173.623 69.7099 168.833 73.2813 164.911C76.8478 160.978 81.3842 159.009 86.8905 159.009C91.8099 159.009 95.9036 160.524 99.1666 163.555H99.4053V160.125H112.557V199.403C112.557 205.624 110.498 210.419 106.389 213.798C102.275 217.173 96.8437 218.863 90.0938 218.863C79.1906 218.863 72.1472 215.159 68.9638 207.757ZM84.483 172.806C82.7719 174.496 81.9164 176.654 81.9164 179.286C81.9164 181.918 82.7321 184.066 84.3636 185.726C86.0051 187.391 88.1688 188.218 90.8499 188.218C93.4215 188.218 95.5355 187.376 97.1968 185.686C98.8681 184.001 99.7038 181.868 99.7038 179.286C99.7038 176.654 98.8482 174.496 97.1372 172.806C95.4261 171.106 93.327 170.254 90.8499 170.254C88.3131 170.254 86.1941 171.106 84.483 172.806Z" fill="white"/>
<path d="M158.613 181.08H130.937C130.937 183.752 131.803 185.741 133.543 187.042C135.279 188.333 137.165 188.976 139.194 188.976C141.328 188.976 143.014 188.692 144.248 188.118C145.491 187.55 146.904 186.419 148.486 184.729L158.016 189.494C154.047 196.153 147.451 199.483 138.219 199.483C132.474 199.483 127.54 197.509 123.416 193.561C119.303 189.614 117.248 184.859 117.248 179.286C117.248 173.718 119.303 168.948 123.416 164.97C127.54 160.998 132.474 159.009 138.219 159.009C144.278 159.009 149.207 160.763 153.002 164.273C156.792 167.772 158.693 172.776 158.693 179.286C158.693 180.178 158.663 180.776 158.613 181.08ZM131.315 173.763H145.82C145.511 171.784 144.73 170.264 143.472 169.197C142.208 168.121 140.587 167.582 138.597 167.582C136.418 167.582 134.683 168.155 133.384 169.297C132.096 170.443 131.405 171.929 131.315 173.763Z" fill="white"/>
<path d="M163.361 198.366V160.125H176.533V164.153H176.692C180.114 160.724 183.755 159.009 187.615 159.009C189.495 159.009 191.366 159.263 193.226 159.767C195.096 160.26 196.887 161.033 198.598 162.079C200.309 163.116 201.692 164.592 202.756 166.506C203.831 168.42 204.368 170.643 204.368 173.165V198.366H191.196V176.754C191.196 174.76 190.56 173.02 189.286 171.53C188.023 170.045 186.381 169.297 184.352 169.297C182.362 169.297 180.557 170.07 178.94 171.61C177.334 173.155 176.533 174.87 176.533 176.754V198.366H163.361Z" fill="white"/>
<path d="M213.65 193.641C210.079 189.733 208.298 184.948 208.298 179.286C208.298 173.623 210.079 168.833 213.65 164.911C217.217 160.978 221.753 159.009 227.26 159.009C232.323 159.009 236.497 160.599 239.774 163.774V134.246H252.926V198.366H239.914V194.04H239.774C236.497 197.669 232.323 199.483 227.26 199.483C221.753 199.483 217.217 197.539 213.65 193.641ZM224.852 172.806C223.141 174.496 222.286 176.654 222.286 179.286C222.286 181.918 223.101 184.066 224.733 185.726C226.374 187.391 228.538 188.218 231.219 188.218C233.791 188.218 235.905 187.376 237.566 185.686C239.237 184.001 240.073 181.868 240.073 179.286C240.073 176.654 239.217 174.496 237.506 172.806C235.795 171.106 233.696 170.254 231.219 170.254C228.682 170.254 226.563 171.106 224.852 172.806Z" fill="white"/>
<path d="M261.636 138.812C263.173 137.272 265.004 136.499 267.128 136.499C269.261 136.499 271.097 137.272 272.639 138.812C274.176 140.342 274.947 142.176 274.947 144.315C274.947 146.458 274.176 148.297 272.639 149.837C271.097 151.383 269.261 152.15 267.128 152.15C265.004 152.15 263.173 151.383 261.636 149.837C260.094 148.297 259.328 146.458 259.328 144.315C259.328 142.176 260.094 140.342 261.636 138.812ZM260.363 160.125V198.366H273.534V160.125H260.363Z" fill="white"/>
<path d="M283.588 160.125V151.991C283.628 146.279 284.961 141.703 287.587 138.273C290.223 134.844 293.874 133.129 298.53 133.129C300.52 133.129 302.415 133.419 304.221 133.987C306.036 134.56 307.334 135.143 308.12 135.741L309.394 136.559L304.778 145.89C303.584 145.187 302.271 144.833 300.838 144.833C299.207 144.833 298.112 145.401 297.555 146.528C297.008 147.644 296.74 149.593 296.74 152.37V160.125H305.534V170.194H296.74V198.366H283.588V170.194H278.077V160.125H283.588Z" fill="white"/>
<path d="M336.696 160.125H351.877L321.893 217.746H306.713L319.884 192.405L301.798 160.125H316.979L327.624 179.724L336.696 160.125Z" fill="white"/>
<defs>
<linearGradient id="paint0_linear_148_585" x1="122.199" y1="57.526" x2="122.199" y2="154.006" gradientUnits="userSpaceOnUse">
<stop offset="1" stop-color="#2258E2"/>
</linearGradient>
<linearGradient id="paint1_linear_148_585" x1="119.784" y1="57.526" x2="119.784" y2="154.006" gradientUnits="userSpaceOnUse">
<stop offset="1" stop-color="#2258E2"/>
</linearGradient>
<linearGradient id="paint2_linear_148_585" x1="87.7118" y1="59.5396" x2="87.7118" y2="70.6568" gradientUnits="userSpaceOnUse">
<stop offset="1" stop-color="#2258E2"/>
</linearGradient>
<linearGradient id="paint3_linear_148_585" x1="109.093" y1="59.5396" x2="109.093" y2="70.6568" gradientUnits="userSpaceOnUse">
<stop offset="1" stop-color="#2258E2"/>
</linearGradient>
<linearGradient id="paint4_linear_148_585" x1="130.476" y1="59.5396" x2="130.476" y2="70.6568" gradientUnits="userSpaceOnUse">
<stop offset="1" stop-color="#2258E2"/>
</linearGradient>
<linearGradient id="paint5_linear_148_585" x1="151.858" y1="59.5396" x2="151.858" y2="70.6568" gradientUnits="userSpaceOnUse">
<stop offset="1" stop-color="#2258E2"/>
</linearGradient>
<linearGradient id="paint6_linear_148_585" x1="38.5518" y1="131.923" x2="38.5518" y2="203.306" gradientUnits="userSpaceOnUse">
<stop offset="1" stop-color="#2258E2"/>
</linearGradient>
<linearGradient id="paint7_linear_148_585" x1="90.0439" y1="154.064" x2="90.0439" y2="223.807" gradientUnits="userSpaceOnUse">
<stop offset="1" stop-color="#2258E2"/>
</linearGradient>
<linearGradient id="paint8_linear_148_585" x1="138.647" y1="154.064" x2="138.647" y2="204.423" gradientUnits="userSpaceOnUse">
<stop offset="1" stop-color="#2258E2"/>
</linearGradient>
<linearGradient id="paint9_linear_148_585" x1="183.865" y1="154.064" x2="183.865" y2="203.306" gradientUnits="userSpaceOnUse">
<stop offset="1" stop-color="#2258E2"/>
</linearGradient>
<linearGradient id="paint10_linear_148_585" x1="230.617" y1="129.311" x2="230.617" y2="204.423" gradientUnits="userSpaceOnUse">
<stop offset="1" stop-color="#2258E2"/>
</linearGradient>
<linearGradient id="paint11_linear_148_585" x1="267.14" y1="131.549" x2="267.14" y2="203.306" gradientUnits="userSpaceOnUse">
<stop offset="1" stop-color="#2258E2"/>
</linearGradient>
<linearGradient id="paint12_linear_148_585" x1="294.454" y1="128.195" x2="294.454" y2="203.306" gradientUnits="userSpaceOnUse">
<stop offset="1" stop-color="#2258E2"/>
</linearGradient>
<linearGradient id="paint13_linear_148_585" x1="326.691" y1="155.181" x2="326.691" y2="222.691" gradientUnits="userSpaceOnUse">
<stop offset="1" stop-color="#2258E2"/>
</linearGradient>
</defs>
</svg>
